<svg width="70" height="70" viewBox="0 0 70 70" fill="none" xmlns="http://www.w3.org/2000/svg">
<g clip-path="url(#clip0_4_260)">
<path fill-rule="evenodd" clip-rule="evenodd" d="M4.375 35C4.375 43.1223 7.60155 50.9118 13.3449 56.6551C19.0882 62.3984 26.8777 65.625 35 65.625C43.1223 65.625 50.9118 62.3984 56.6551 56.6551C62.3984 50.9118 65.625 43.1223 65.625 35C65.625 26.8777 62.3984 19.0882 56.6551 13.3449C50.9118 7.60155 43.1223 4.375 35 4.375C26.8777 4.375 19.0882 7.60155 13.3449 13.3449C7.60155 19.0882 4.375 26.8777 4.375 35ZM70 35C70 44.2826 66.3125 53.185 59.7487 59.7487C53.185 66.3125 44.2826 70 35 70C25.7174 70 16.815 66.3125 10.2513 59.7487C3.68749 53.185 0 44.2826 0 35C0 25.7174 3.68749 16.815 10.2513 10.2513C16.815 3.68749 25.7174 0 35 0C44.2826 0 53.185 3.68749 59.7487 10.2513C66.3125 16.815 70 25.7174 70 35ZM50.3125 32.8125C50.8927 32.8125 51.4491 33.043 51.8593 33.4532C52.2695 33.8634 52.5 34.4198 52.5 35C52.5 35.5802 52.2695 36.1366 51.8593 36.5468C51.4491 36.957 50.8927 37.1875 50.3125 37.1875H24.9681L34.3613 46.5762C34.5646 46.7796 34.726 47.0211 34.836 47.2868C34.9461 47.5526 35.0028 47.8374 35.0028 48.125C35.0028 48.4126 34.9461 48.6974 34.836 48.9632C34.726 49.2289 34.5646 49.4704 34.3613 49.6738C34.1579 49.8771 33.9164 50.0385 33.6507 50.1485C33.3849 50.2586 33.1001 50.3153 32.8125 50.3153C32.5249 50.3153 32.2401 50.2586 31.9743 50.1485C31.7086 50.0385 31.4671 49.8771 31.2638 49.6738L18.1388 36.5488C17.935 36.3456 17.7734 36.1042 17.6631 35.8384C17.5529 35.5726 17.4961 35.2877 17.4961 35C17.4961 34.7123 17.5529 34.4274 17.6631 34.1616C17.7734 33.8958 17.935 33.6544 18.1388 33.4512L31.2638 20.3263C31.6745 19.9155 32.2316 19.6847 32.8125 19.6847C33.3934 19.6847 33.9505 19.9155 34.3613 20.3263C34.772 20.737 35.0028 21.2941 35.0028 21.875C35.0028 22.4559 34.772 23.013 34.3613 23.4237L24.9681 32.8125H50.3125Z" fill="white"/>
</g>
<defs>
<clipPath id="clip0_4_260">
<rect width="70" height="70" fill="white"/>
</clipPath>
</defs>
</svg>
