<svg width="34" height="34" viewBox="0 0 34 34" fill="none" xmlns="http://www.w3.org/2000/svg">
<g clip-path="url(#clip0_16_104)">
<path fill-rule="evenodd" clip-rule="evenodd" d="M12.5739 7.85426C12.5739 7.58196 12.682 7.32083 12.8746 7.12829C13.0671 6.93575 13.3282 6.82758 13.6005 6.82758H30.0273C30.2996 6.82758 30.5608 6.93575 30.7533 7.12829C30.9458 7.32083 31.054 7.58196 31.054 7.85426V26.3344C31.054 26.6067 30.9458 26.8678 30.7533 27.0604C30.5608 27.2529 30.2996 27.3611 30.0273 27.3611H13.6005C13.3282 27.3611 13.0671 27.2529 12.8746 27.0604C12.682 26.8678 12.5739 26.6067 12.5739 26.3344V22.2277C12.5739 21.9554 12.4657 21.6943 12.2732 21.5017C12.0806 21.3092 11.8195 21.201 11.5472 21.201C11.2749 21.201 11.0138 21.3092 10.8212 21.5017C10.6287 21.6943 10.5205 21.9554 10.5205 22.2277V26.3344C10.5205 27.1513 10.845 27.9347 11.4226 28.5123C12.0002 29.0899 12.7837 29.4144 13.6005 29.4144H30.0273C30.8442 29.4144 31.6276 29.0899 32.2052 28.5123C32.7829 27.9347 33.1074 27.1513 33.1074 26.3344V7.85426C33.1074 7.03738 32.7829 6.25397 32.2052 5.67635C31.6276 5.09873 30.8442 4.77423 30.0273 4.77423H13.6005C12.7837 4.77423 12.0002 5.09873 11.4226 5.67635C10.845 6.25397 10.5205 7.03738 10.5205 7.85426V11.961C10.5205 12.2332 10.6287 12.4944 10.8212 12.6869C11.0138 12.8795 11.2749 12.9876 11.5472 12.9876C11.8195 12.9876 12.0806 12.8795 12.2732 12.6869C12.4657 12.4944 12.5739 12.2332 12.5739 11.961V7.85426Z" fill="white"/>
<path fill-rule="evenodd" clip-rule="evenodd" d="M24.5939 17.8213C24.6896 17.726 24.7654 17.6127 24.8172 17.4879C24.8689 17.3632 24.8956 17.2295 24.8956 17.0945C24.8956 16.9594 24.8689 16.8257 24.8172 16.701C24.7654 16.5762 24.6896 16.4629 24.5939 16.3676L18.4339 10.2075C18.3384 10.1121 18.2251 10.0363 18.1004 9.98468C17.9757 9.93302 17.842 9.90643 17.707 9.90643C17.572 9.90643 17.4383 9.93302 17.3136 9.98468C17.1889 10.0363 17.0756 10.1121 16.9801 10.2075C16.8847 10.303 16.8089 10.4163 16.7573 10.541C16.7056 10.6657 16.679 10.7994 16.679 10.9344C16.679 11.0694 16.7056 11.2031 16.7573 11.3278C16.8089 11.4525 16.8847 11.5658 16.9801 11.6613L21.3887 16.0678H3.33356C3.06127 16.0678 2.80013 16.1759 2.60759 16.3685C2.41505 16.561 2.30688 16.8222 2.30688 17.0945C2.30688 17.3667 2.41505 17.6279 2.60759 17.8204C2.80013 18.013 3.06127 18.1211 3.33356 18.1211H21.3887L16.9801 22.5276C16.8847 22.6231 16.8089 22.7364 16.7573 22.8611C16.7056 22.9858 16.679 23.1195 16.679 23.2545C16.679 23.3895 16.7056 23.5232 16.7573 23.6479C16.8089 23.7726 16.8847 23.8859 16.9801 23.9814C17.0756 24.0768 17.1889 24.1526 17.3136 24.2042C17.4383 24.2559 17.572 24.2825 17.707 24.2825C17.842 24.2825 17.9757 24.2559 18.1004 24.2042C18.2251 24.1526 18.3384 24.0768 18.4339 23.9814L24.5939 17.8213Z" fill="white"/>
</g>
<defs>
<clipPath id="clip0_16_104">
<rect width="32.8536" height="32.8536" fill="white" transform="translate(0.253906 0.66748)"/>
</clipPath>
</defs>
</svg>
