<svg width="40" height="40" viewBox="0 0 40 40" fill="none" xmlns="http://www.w3.org/2000/svg">
<g clip-path="url(#clip0_25_223)">
<path d="M9.06534 17.08C8.90534 16.8998 8.80083 16.6773 8.76438 16.4391C8.72794 16.2009 8.7611 15.9573 8.85989 15.7375C8.95868 15.5177 9.11889 15.3312 9.32122 15.2004C9.52355 15.0695 9.75938 14.9999 10.0003 15H30.0003C30.2413 14.9999 30.4771 15.0695 30.6795 15.2004C30.8818 15.3312 31.042 15.5177 31.1408 15.7375C31.2396 15.9573 31.2727 16.2009 31.2363 16.4391C31.1998 16.6773 31.0953 16.8998 30.9353 17.08L20.9353 28.33C20.8181 28.4622 20.6741 28.568 20.5129 28.6404C20.3517 28.7129 20.177 28.7504 20.0003 28.7504C19.8236 28.7504 19.6489 28.7129 19.4878 28.6404C19.3266 28.568 19.1826 28.4622 19.0653 28.33L9.06534 17.08Z" fill="white"/>
<path d="M0 5C0 3.67392 0.526784 2.40215 1.46447 1.46447C2.40215 0.526784 3.67392 0 5 0L35 0C36.3261 0 37.5979 0.526784 38.5355 1.46447C39.4732 2.40215 40 3.67392 40 5V35C40 36.3261 39.4732 37.5979 38.5355 38.5355C37.5979 39.4732 36.3261 40 35 40H5C3.67392 40 2.40215 39.4732 1.46447 38.5355C0.526784 37.5979 0 36.3261 0 35V5ZM37.5 5C37.5 4.33696 37.2366 3.70107 36.7678 3.23223C36.2989 2.76339 35.663 2.5 35 2.5H5C4.33696 2.5 3.70107 2.76339 3.23223 3.23223C2.76339 3.70107 2.5 4.33696 2.5 5V35C2.5 35.663 2.76339 36.2989 3.23223 36.7678C3.70107 37.2366 4.33696 37.5 5 37.5H35C35.663 37.5 36.2989 37.2366 36.7678 36.7678C37.2366 36.2989 37.5 35.663 37.5 35V5Z" fill="white"/>
</g>
<defs>
<clipPath id="clip0_25_223">
<rect width="40" height="40" fill="white"/>
</clipPath>
</defs>
</svg>
