<svg width="23" height="21" viewBox="0 0 23 21" fill="none" xmlns="http://www.w3.org/2000/svg">
<path d="M22.106 10.2595C22.106 15.5582 17.3634 19.9071 11.4439 19.9071C5.52441 19.9071 0.781893 15.5582 0.781893 10.2595C0.781893 4.9609 5.52441 0.611971 11.4439 0.611971C17.3634 0.611971 22.106 4.9609 22.106 10.2595Z" fill="#4B4B4B" fill-opacity="0.5" stroke="white" stroke-width="0.665349"/>
<path d="M16.2927 8.57827V9.52467H4.61757V8.57827H16.2927ZM16.2927 10.2517V11.1981H4.61757V10.2517H16.2927ZM6.28238 6.13053L7.88696 12.252H7.96009L9.61199 6.13053H11.2983L12.9502 12.2649H13.0233L14.6279 6.13053H16.3314L13.9956 14.9407H12.0984L10.4939 9.18053H10.425L8.81185 14.9407H6.91475L4.57886 6.13053H6.28238Z" fill="white"/>
</svg>
