<svg width="41" height="41" viewBox="0 0 41 41" fill="none" xmlns="http://www.w3.org/2000/svg">
<path d="M29.5562 17.9376H39.6319C39.7536 17.9376 39.8728 17.9724 39.9755 18.0377C40.0782 18.103 40.1602 18.1963 40.2118 18.3065C40.2635 18.4168 40.2826 18.5394 40.267 18.6602C40.2515 18.7809 40.2018 18.8947 40.1239 18.9882L35.086 25.0357C35.0259 25.1078 34.9507 25.1658 34.8657 25.2056C34.7806 25.2454 34.6879 25.2661 34.594 25.2661C34.5002 25.2661 34.4074 25.2454 34.3224 25.2056C34.2374 25.1658 34.1622 25.1078 34.102 25.0357L29.0642 18.9882C28.9862 18.8947 28.9366 18.7809 28.921 18.6602C28.9055 18.5394 28.9246 18.4168 28.9762 18.3065C29.0279 18.1963 29.1098 18.103 29.2125 18.0377C29.3152 17.9724 29.4344 17.9376 29.5562 17.9376ZM1.36866 23.0626H11.4444C11.5661 23.0625 11.6853 23.0278 11.788 22.9625C11.8907 22.8971 11.9727 22.8039 12.0243 22.6937C12.076 22.5834 12.0951 22.4607 12.0795 22.34C12.064 22.2193 12.0143 22.1055 11.9364 22.012L6.89853 15.9645C6.83841 15.8924 6.76318 15.8344 6.67816 15.7946C6.59314 15.7548 6.50041 15.7341 6.40653 15.7341C6.31266 15.7341 6.21993 15.7548 6.13491 15.7946C6.04989 15.8344 5.97465 15.8924 5.91453 15.9645L0.876657 22.012C0.798751 22.1055 0.749106 22.2193 0.733535 22.34C0.717964 22.4607 0.737111 22.5834 0.788735 22.6937C0.840359 22.8039 0.922323 22.8971 1.02503 22.9625C1.12773 23.0278 1.24693 23.0625 1.36866 23.0626Z" fill="white"/>
<path fill-rule="evenodd" clip-rule="evenodd" d="M20.5 7.68746C16.523 7.68746 12.9662 9.49914 10.6164 12.3461C10.5115 12.4821 10.3803 12.5956 10.2306 12.6799C10.0809 12.7641 9.91582 12.8175 9.74512 12.8367C9.57442 12.8558 9.40161 12.8405 9.23696 12.7916C9.0723 12.7426 8.91917 12.6611 8.78666 12.5518C8.65416 12.4425 8.54498 12.3077 8.46563 12.1553C8.38628 12.003 8.33837 11.8362 8.32475 11.665C8.31114 11.4938 8.33209 11.3215 8.38637 11.1586C8.44065 10.9956 8.52714 10.8452 8.64071 10.7163C10.5169 8.44474 13.0062 6.75986 15.8123 5.86207C18.6184 4.96429 21.6234 4.89138 24.4697 5.65203C27.3161 6.41268 29.8841 7.97487 31.8683 10.1528C33.8524 12.3307 35.1693 15.0327 35.6623 17.9375H33.0562C32.4655 15.0435 30.893 12.4424 28.6049 10.5746C26.3168 8.70677 23.4536 7.68685 20.5 7.68746ZM7.94371 23.0625C8.42882 25.4318 9.57436 27.6156 11.248 29.3614C12.9216 31.1073 15.0551 32.3441 17.4018 32.9288C19.7485 33.5136 22.2128 33.4224 24.51 32.666C26.8071 31.9095 28.8434 30.5185 30.3835 28.6538C30.4885 28.5178 30.6197 28.4043 30.7693 28.32C30.919 28.2358 31.0841 28.1824 31.2548 28.1632C31.4255 28.1441 31.5983 28.1594 31.763 28.2083C31.9276 28.2573 32.0808 28.3388 32.2133 28.4481C32.3458 28.5574 32.4549 28.6922 32.5343 28.8446C32.6136 28.9969 32.6616 29.1637 32.6752 29.3349C32.6888 29.5061 32.6678 29.6784 32.6136 29.8413C32.5593 30.0043 32.4728 30.1547 32.3592 30.2836C30.483 32.5552 27.9938 34.24 25.1876 35.1378C22.3815 36.0356 19.3766 36.1085 16.5302 35.3479C13.6838 34.5872 11.1158 33.025 9.13166 30.8471C7.14747 28.6692 5.83059 25.9672 5.33765 23.0625H7.94371Z" fill="white"/>
</svg>
