<svg width="34" height="34" viewBox="0 0 34 34" fill="none" xmlns="http://www.w3.org/2000/svg">
<g clip-path="url(#clip0_16_110)">
<path d="M25.8633 33.521C27.7693 33.521 29.5973 32.7638 30.945 31.4161C32.2928 30.0683 33.05 28.2403 33.05 26.3343C33.05 24.4282 32.2928 22.6003 30.945 21.2525C29.5973 19.9047 27.7693 19.1476 25.8633 19.1476C23.9572 19.1476 22.1293 19.9047 20.7815 21.2525C19.4337 22.6003 18.6765 24.4282 18.6765 26.3343C18.6765 28.2403 19.4337 30.0683 20.7815 31.4161C22.1293 32.7638 23.9572 33.521 25.8633 33.521ZM26.8899 23.2543V25.3076H28.9433C29.2156 25.3076 29.4767 25.4158 29.6693 25.6083C29.8618 25.8008 29.97 26.062 29.97 26.3343C29.97 26.6066 29.8618 26.8677 29.6693 27.0603C29.4767 27.2528 29.2156 27.361 28.9433 27.361H26.8899V29.4143C26.8899 29.6866 26.7818 29.9477 26.5892 30.1403C26.3967 30.3328 26.1356 30.441 25.8633 30.441C25.591 30.441 25.3298 30.3328 25.1373 30.1403C24.9448 29.9477 24.8366 29.6866 24.8366 29.4143V27.361H22.7832C22.5109 27.361 22.2498 27.2528 22.0573 27.0603C21.8647 26.8677 21.7566 26.6066 21.7566 26.3343C21.7566 26.062 21.8647 25.8008 22.0573 25.6083C22.2498 25.4158 22.5109 25.3076 22.7832 25.3076H24.8366V23.2543C24.8366 22.982 24.9448 22.7208 25.1373 22.5283C25.3298 22.3357 25.591 22.2276 25.8633 22.2276C26.1356 22.2276 26.3967 22.3357 26.5892 22.5283C26.7818 22.7208 26.8899 22.982 26.8899 23.2543ZM22.7832 10.9342C22.7832 12.5679 22.1342 14.1347 20.979 15.29C19.8238 16.4452 18.2569 17.0942 16.6232 17.0942C14.9894 17.0942 13.4226 16.4452 12.2674 15.29C11.1121 14.1347 10.4631 12.5679 10.4631 10.9342C10.4631 9.30041 11.1121 7.73358 12.2674 6.57835C13.4226 5.42311 14.9894 4.77411 16.6232 4.77411C18.2569 4.77411 19.8238 5.42311 20.979 6.57835C22.1342 7.73358 22.7832 9.30041 22.7832 10.9342ZM16.6232 15.0409C17.7123 15.0409 18.7569 14.6082 19.5271 13.838C20.2972 13.0679 20.7299 12.0233 20.7299 10.9342C20.7299 9.84499 20.2972 8.80044 19.5271 8.03028C18.7569 7.26013 17.7123 6.82746 16.6232 6.82746C15.534 6.82746 14.4895 7.26013 13.7193 8.03028C12.9492 8.80044 12.5165 9.84499 12.5165 10.9342C12.5165 12.0233 12.9492 13.0679 13.7193 13.838C14.4895 14.6082 15.534 15.0409 16.6232 15.0409Z" fill="white"/>
<path d="M17.1487 29.4143C16.9136 28.7474 16.7559 28.0557 16.6785 27.3528H6.35633C6.35838 26.8476 6.67254 25.3282 8.06472 23.936C9.4035 22.5972 11.923 21.2009 16.6231 21.2009C17.1569 21.2009 17.6634 21.218 18.1426 21.2523C18.6066 20.5521 19.161 19.9176 19.7934 19.3673C18.8352 19.2236 17.7784 19.1503 16.6231 19.1476C6.35633 19.1476 4.30298 25.3076 4.30298 27.361C4.30298 29.4143 6.35633 29.4143 6.35633 29.4143H17.1487Z" fill="white"/>
</g>
<defs>
<clipPath id="clip0_16_110">
<rect width="32.8536" height="32.8536" fill="white" transform="translate(0.196289 0.667603)"/>
</clipPath>
</defs>
</svg>
