<svg width="33" height="33" viewBox="0 0 33 33" fill="none" xmlns="http://www.w3.org/2000/svg">
<path d="M31.9728 4.00133C32.1655 4.19463 32.2737 4.45645 32.2737 4.72939C32.2737 5.00234 32.1655 5.26415 31.9728 5.45745L29.8216 7.6107L25.6966 3.4857L27.8478 1.33245C28.0412 1.13912 28.3034 1.03052 28.5769 1.03052C28.8503 1.03052 29.1126 1.13912 29.306 1.33245L31.9728 3.99927V4.00133ZM28.3634 9.06683L24.2384 4.94183L10.1866 18.9957C10.0731 19.1092 9.98762 19.2476 9.93703 19.4L8.27671 24.3788C8.2466 24.4696 8.24233 24.5669 8.26437 24.66C8.28641 24.7531 8.33389 24.8382 8.40151 24.9058C8.46913 24.9734 8.55423 25.0209 8.64729 25.0429C8.74034 25.065 8.8377 25.0607 8.92846 25.0306L13.9073 23.3703C14.0595 23.3203 14.1979 23.2355 14.3116 23.1228L28.3634 9.06683Z" fill="white"/>
<path fill-rule="evenodd" clip-rule="evenodd" d="M2.0625 27.8438C2.0625 28.6643 2.38845 29.4512 2.96864 30.0314C3.54883 30.6116 4.33574 30.9375 5.15625 30.9375H27.8438C28.6643 30.9375 29.4512 30.6116 30.0314 30.0314C30.6116 29.4512 30.9375 28.6643 30.9375 27.8438V15.4688C30.9375 15.1952 30.8289 14.9329 30.6355 14.7395C30.4421 14.5461 30.1798 14.4375 29.9062 14.4375C29.6327 14.4375 29.3704 14.5461 29.177 14.7395C28.9836 14.9329 28.875 15.1952 28.875 15.4688V27.8438C28.875 28.1173 28.7664 28.3796 28.573 28.573C28.3796 28.7664 28.1173 28.875 27.8438 28.875H5.15625C4.88275 28.875 4.62044 28.7664 4.42705 28.573C4.23365 28.3796 4.125 28.1173 4.125 27.8438V5.15625C4.125 4.88275 4.23365 4.62044 4.42705 4.42705C4.62044 4.23365 4.88275 4.125 5.15625 4.125H18.5625C18.836 4.125 19.0983 4.01635 19.2917 3.82295C19.4851 3.62956 19.5938 3.36725 19.5938 3.09375C19.5938 2.82025 19.4851 2.55794 19.2917 2.36455C19.0983 2.17115 18.836 2.0625 18.5625 2.0625H5.15625C4.33574 2.0625 3.54883 2.38845 2.96864 2.96864C2.38845 3.54883 2.0625 4.33574 2.0625 5.15625V27.8438Z" fill="white"/>
</svg>
